<svg width="40" height="38" viewBox="0 0 40 38" fill="none" xmlns="http://www.w3.org/2000/svg">
<rect width="40" height="38" rx="4" fill="#222222"/>
<path d="M18.9 11.68V14.76H12.06V17.56H17.98V20.48H12.06V26H8.32V11.68H18.9ZM29.7056 22.82C29.5456 23.4333 29.239 24 28.7856 24.52C27.759 25.6933 26.339 26.28 24.5256 26.28C22.8856 26.28 21.559 25.8267 20.5456 24.92C19.4123 23.9067 18.8456 22.5667 18.8456 20.9C18.8456 19.1533 19.4323 17.7533 20.6056 16.7C21.619 15.7933 22.879 15.34 24.3856 15.34C26.2123 15.34 27.619 15.94 28.6056 17.14C29.4723 18.1933 29.9056 19.5733 29.9056 21.28C29.9056 21.4 29.9056 21.5067 29.9056 21.6H22.1856C22.2123 22.3467 22.4323 22.9333 22.8456 23.36C23.259 23.7733 23.819 23.98 24.5256 23.98C25.3923 23.98 26.0523 23.5933 26.5056 22.82H29.7056ZM26.5656 19.66C26.3923 18.3133 25.679 17.64 24.4256 17.64C23.159 17.64 22.4256 18.3133 22.2256 19.66H26.5656ZM32.0527 22.98C32.4927 22.98 32.8593 23.1333 33.1527 23.44C33.4593 23.7333 33.6127 24.0933 33.6127 24.52C33.6127 24.96 33.4593 25.3333 33.1527 25.64C32.8593 25.9467 32.4927 26.1 32.0527 26.1C31.626 26.1 31.2593 25.9467 30.9527 25.64C30.646 25.3333 30.4927 24.96 30.4927 24.52C30.4927 24.0933 30.646 23.7333 30.9527 23.44C31.2593 23.1333 31.626 22.98 32.0527 22.98Z" fill="white"/>
</svg>
