<svg width="60" height="16" viewBox="0 0 60 16" fill="none" xmlns="http://www.w3.org/2000/svg">
<path d="M10.9 0.68V3.76H4.06V6.56H9.98V9.48H4.06V15H0.32V0.68H10.9ZM21.7056 11.82C21.5456 12.4333 21.239 13 20.7856 13.52C19.759 14.6933 18.339 15.28 16.5256 15.28C14.8856 15.28 13.559 14.8267 12.5456 13.92C11.4123 12.9067 10.8456 11.5667 10.8456 9.9C10.8456 8.15333 11.4323 6.75333 12.6056 5.7C13.619 4.79333 14.879 4.34 16.3856 4.34C18.2123 4.34 19.619 4.94 20.6056 6.14C21.4723 7.19333 21.9056 8.57333 21.9056 10.28C21.9056 10.4 21.9056 10.5067 21.9056 10.6H14.1856C14.2123 11.3467 14.4323 11.9333 14.8456 12.36C15.259 12.7733 15.819 12.98 16.5256 12.98C17.3923 12.98 18.0523 12.5933 18.5056 11.82H21.7056ZM18.5656 8.66C18.3923 7.31333 17.679 6.64 16.4256 6.64C15.159 6.64 14.4256 7.31333 14.2256 8.66H18.5656ZM32.9127 11.82C32.7527 12.4333 32.446 13 31.9927 13.52C30.966 14.6933 29.546 15.28 27.7327 15.28C26.0927 15.28 24.766 14.8267 23.7527 13.92C22.6193 12.9067 22.0527 11.5667 22.0527 9.9C22.0527 8.15333 22.6393 6.75333 23.8127 5.7C24.826 4.79333 26.086 4.34 27.5927 4.34C29.4193 4.34 30.826 4.94 31.8127 6.14C32.6793 7.19333 33.1127 8.57333 33.1127 10.28C33.1127 10.4 33.1127 10.5067 33.1127 10.6H25.3927C25.4193 11.3467 25.6393 11.9333 26.0527 12.36C26.466 12.7733 27.026 12.98 27.7327 12.98C28.5993 12.98 29.2593 12.5933 29.7127 11.82H32.9127ZM29.7727 8.66C29.5993 7.31333 28.886 6.64 27.6327 6.64C26.366 6.64 25.6327 7.31333 25.4327 8.66H29.7727ZM44.1197 11.82C43.9597 12.4333 43.653 13 43.1997 13.52C42.173 14.6933 40.753 15.28 38.9397 15.28C37.2997 15.28 35.973 14.8267 34.9597 13.92C33.8264 12.9067 33.2597 11.5667 33.2597 9.9C33.2597 8.15333 33.8464 6.75333 35.0197 5.7C36.033 4.79333 37.293 4.34 38.7997 4.34C40.6264 4.34 42.033 4.94 43.0197 6.14C43.8864 7.19333 44.3197 8.57333 44.3197 10.28C44.3197 10.4 44.3197 10.5067 44.3197 10.6H36.5997C36.6264 11.3467 36.8464 11.9333 37.2597 12.36C37.673 12.7733 38.233 12.98 38.9397 12.98C39.8064 12.98 40.4664 12.5933 40.9197 11.82H44.1197ZM40.9797 8.66C40.8064 7.31333 40.093 6.64 38.8397 6.64C37.573 6.64 36.8397 7.31333 36.6397 8.66H40.9797ZM55.3667 0.68V15H51.9467V13.78C51.3467 14.78 50.4067 15.28 49.1267 15.28C47.6334 15.28 46.4601 14.7133 45.6067 13.58C44.8734 12.58 44.5067 11.3 44.5067 9.74C44.5067 7.99333 44.9667 6.62667 45.8867 5.64C46.6867 4.76 47.7067 4.32 48.9467 4.32C50.2401 4.32 51.2401 4.82 51.9467 5.82V0.68H55.3667ZM50.0067 6.98C49.3534 6.98 48.8467 7.22667 48.4867 7.72C48.1401 8.2 47.9667 8.88 47.9667 9.76C47.9667 11.5867 48.6467 12.5 50.0067 12.5C50.6601 12.5 51.1667 12.26 51.5267 11.78C51.9001 11.2867 52.0867 10.6133 52.0867 9.76C52.0867 8.89333 51.9001 8.21333 51.5267 7.72C51.1534 7.22667 50.6467 6.98 50.0067 6.98ZM58.1034 11.98C58.5434 11.98 58.9101 12.1333 59.2034 12.44C59.5101 12.7333 59.6634 13.0933 59.6634 13.52C59.6634 13.96 59.5101 14.3333 59.2034 14.64C58.9101 14.9467 58.5434 15.1 58.1034 15.1C57.6768 15.1 57.3101 14.9467 57.0034 14.64C56.6968 14.3333 56.5434 13.96 56.5434 13.52C56.5434 13.0933 56.6968 12.7333 57.0034 12.44C57.3101 12.1333 57.6768 11.98 58.1034 11.98Z" fill="#222222"/>
</svg>
